<?xml version="1.0" encoding="iso-8859-1"?>
<!-- Uploaded to: SVG Repo, www.svgrepo.com, Generator: SVG Repo Mixer Tools -->
<svg version="1.1" id="Layer_1" xmlns="http://www.w3.org/2000/svg" xmlns:xlink="http://www.w3.org/1999/xlink" 
	 viewBox="0 0 390.659 390.659" xml:space="preserve">
<path style="fill:#FFFFFF;" d="M230.335,93.964h7.046c5.947,0,10.861,4.848,10.861,10.861v230.853
	c0,5.947-4.848,10.861-10.861,10.861H49.325c-5.947,0-10.861-4.848-10.861-10.861V104.824c0-5.947,4.848-10.861,10.861-10.861h7.046
	V71.725H21.657v296.986h243.329V71.79h-34.715v22.174H230.335z"/>
<path style="fill:#FFC10D;" d="M60.121,121.051v203.766h166.4V121.051c-1.616,1.616-4.331,2.715-7.046,2.715H67.168
	C64.517,123.766,62.319,122.731,60.121,121.051z"/>
<g>
	<path style="fill:#56ACE0;" d="M164.202,50.069c0.517-2.198,1.099-4.331,1.099-6.529c0-11.895-9.762-21.657-21.657-21.657
		s-21.657,9.762-21.657,21.657c0,2.198,0.517,4.331,1.099,6.529H164.202z"/>
	<rect x="78.028" y="71.79" style="fill:#56ACE0;" width="130.586" height="30.319"/>
</g>
<g>
	<path style="fill:#194F82;" d="M275.846,50.069h-89.988c0.517-2.198,0.517-4.331,0.517-6.529c0-23.855-19.523-43.378-43.378-43.378
		S99.62,19.685,99.62,43.539c0,2.198,0,4.331,0.517,6.529H10.861C4.913,50.069,0,54.917,0,60.929v318.707
		c0,5.947,4.848,10.861,10.861,10.861h265.051c5.947,0,10.861-4.848,10.861-10.861V60.929
		C286.707,54.982,281.794,50.069,275.846,50.069z M143.644,21.883c11.895,0,21.657,9.762,21.657,21.657
		c0,2.198-0.517,4.331-1.099,6.529h-41.18c-0.517-2.198-1.099-4.331-1.099-6.529C121.923,31.644,131.685,21.883,143.644,21.883z
		 M78.028,71.79h130.586v30.319H78.028C78.028,102.109,78.028,71.79,78.028,71.79z M60.121,121.051
		c1.616,1.616,4.331,2.715,7.046,2.715h152.307c2.715,0,4.848-1.099,7.046-2.715v203.766h-166.4V121.051z M264.986,368.776H21.657
		V71.79h34.715v22.238h-7.046c-5.947,0-10.861,4.848-10.861,10.861v230.853c0,5.947,4.848,10.861,10.861,10.861h188.057
		c5.947,0,10.861-4.848,10.861-10.861V104.824c0-5.947-4.848-10.861-10.861-10.861h-7.046V71.725h34.715v297.051H264.986z"/>
	<path style="fill:#194F82;" d="M193.487,151.952H93.22c-5.947,0-10.861,4.848-10.861,10.861c0,6.012,4.848,10.861,10.861,10.861
		h100.267c5.947,0,10.861-4.848,10.861-10.861C204.347,156.8,199.434,151.952,193.487,151.952z"/>
	<path style="fill:#194F82;" d="M193.487,205.091H93.22c-5.947,0-10.861,4.848-10.861,10.861c0,5.947,4.848,10.861,10.861,10.861
		h100.267c5.947,0,10.861-4.848,10.861-10.861C204.347,209.422,199.434,205.091,193.487,205.091z"/>
	<path style="fill:#194F82;" d="M193.487,257.648H93.22c-5.947,0-10.861,4.849-10.861,10.861c0,5.947,4.848,10.861,10.861,10.861
		h100.267c5.947,0,10.861-4.848,10.861-10.861C204.347,262.562,199.434,257.648,193.487,257.648z"/>
</g>
<polygon style="fill:#56ACE0;" points="339.782,64.162 339.265,290.747 353.875,315.636 368.549,291.265 368.549,64.162 "/>
<path style="fill:#194F82;" d="M367.968,42.505h-28.186c-11.895,0-22.238,9.762-22.238,22.238V293.98
	c0,2.198,0.517,3.814,1.616,5.43l25.471,43.378c4.331,7.564,15.192,7.046,18.941,0l25.471-43.378
	c1.099-1.616,1.616-3.814,1.616-5.43V64.743C390.206,52.267,380.444,42.505,367.968,42.505z M353.875,315.636l-14.61-24.889
	l0.517-226.521h28.703v227.103L353.875,315.636z"/>
</svg>